<svg width="33" height="33" viewBox="0 0 33 33" fill="none" xmlns="http://www.w3.org/2000/svg">
<g id="AI Essentials Icon Set">
<g id="icon">
<path d="M27.8438 16.1562H27.6513C26.8606 12.6225 23.705 9.96872 19.9375 9.96872H17.5312V9.08872C18.7275 8.66247 19.5938 7.52809 19.5938 6.18747C19.5938 4.48247 18.205 3.09372 16.5 3.09372C14.795 3.09372 13.4062 4.48247 13.4062 6.18747C13.4062 7.52809 14.2725 8.66247 15.4688 9.08872V9.96872H13.0625C9.295 9.96872 6.13938 12.6225 5.34875 16.1562H5.15625C4.02188 16.1562 3.09375 17.0843 3.09375 18.2187V20.2812C3.09375 21.4156 4.02188 22.3437 5.15625 22.3437H5.53438C6.34563 24.8737 8.39437 26.84 10.9656 27.555C10.7731 27.9606 10.6562 28.4006 10.6562 28.875C10.6562 29.4456 11.1169 29.9062 11.6875 29.9062H21.3125C21.8831 29.9062 22.3438 29.4456 22.3438 28.875C22.3438 28.4006 22.2269 27.9537 22.0344 27.555C24.6056 26.8468 26.6544 24.8737 27.4656 22.3437H27.8438C28.9781 22.3437 29.9062 21.4156 29.9062 20.2812V18.2187C29.9062 17.0843 28.9781 16.1562 27.8438 16.1562ZM16.5 5.15622C17.0706 5.15622 17.5312 5.61684 17.5312 6.18747C17.5312 6.75809 17.0706 7.21872 16.5 7.21872C15.9294 7.21872 15.4688 6.75809 15.4688 6.18747C15.4688 5.61684 15.9294 5.15622 16.5 5.15622ZM19.9375 25.7812H13.0625C9.83812 25.7812 7.21875 23.1618 7.21875 19.9375V17.875C7.21875 14.6506 9.83812 12.0312 13.0625 12.0312H19.9375C23.1619 12.0312 25.7812 14.6506 25.7812 17.875V19.9375C25.7812 23.1618 23.1619 25.7812 19.9375 25.7812Z" fill="#F2994A"/>
<path d="M12.7188 14.7812C11.5844 14.7812 10.6562 15.7093 10.6562 16.8437V18.9062C10.6562 20.0406 11.5844 20.9687 12.7188 20.9687C13.8531 20.9687 14.7812 20.0406 14.7812 18.9062V16.8437C14.7812 15.7093 13.8531 14.7812 12.7188 14.7812Z" fill="#F2994A"/>
<path d="M20.2812 14.7812C19.1469 14.7812 18.2188 15.7093 18.2188 16.8437V18.9062C18.2188 20.0406 19.1469 20.9687 20.2812 20.9687C21.4156 20.9687 22.3438 20.0406 22.3438 18.9062V16.8437C22.3438 15.7093 21.4156 14.7812 20.2812 14.7812Z" fill="#F2994A"/>
<path d="M9.30187 5.10122L11.3644 5.78872C11.4744 5.82309 11.5844 5.84372 11.6875 5.84372C12.1206 5.84372 12.5194 5.56872 12.6637 5.13559C12.8425 4.59247 12.5537 4.00809 12.0106 3.82934L9.94813 3.14184C9.41188 2.96309 8.8275 3.25184 8.64187 3.79497C8.45625 4.33809 8.75188 4.92247 9.295 5.10122H9.30187Z" fill="#F2994A"/>
<path d="M9.625 9.28122C9.735 9.28122 9.845 9.26747 9.94813 9.22622L12.0106 8.53872C12.5537 8.35997 12.8425 7.77559 12.6637 7.23247C12.485 6.68934 11.9006 6.40059 11.3575 6.57934L9.295 7.26684C8.75188 7.44559 8.46312 8.02997 8.64187 8.57309C8.78625 9.00622 9.185 9.28122 9.61812 9.28122H9.625Z" fill="#F2994A"/>
<path d="M21.3125 5.84372C21.4225 5.84372 21.5325 5.82997 21.6356 5.78872L23.6981 5.10122C24.2413 4.92247 24.53 4.33809 24.3512 3.79497C24.1725 3.25184 23.5881 2.96309 23.045 3.14184L20.9825 3.82934C20.4394 4.00809 20.1506 4.59247 20.3294 5.13559C20.4737 5.56872 20.8725 5.84372 21.3056 5.84372H21.3125Z" fill="#F2994A"/>
<path d="M20.9894 8.53872L23.0519 9.22622C23.1619 9.26059 23.2719 9.28122 23.375 9.28122C23.8081 9.28122 24.2069 9.00622 24.3512 8.57309C24.53 8.02997 24.2413 7.44559 23.6981 7.26684L21.6356 6.57934C21.0994 6.40059 20.5081 6.68934 20.3294 7.23247C20.1506 7.77559 20.4394 8.35997 20.9825 8.53872H20.9894Z" fill="#F2994A"/>
</g>
</g>
</svg>